<svg width="150" height="150" viewBox="0 0 150 150" fill="none" xmlns="http://www.w3.org/2000/svg">
<g clip-path="url(#clip0_1_5)">
<rect width="150" height="150" rx="30" fill="#101010" fill-opacity="0.882353"/>
<path d="M35.2896 64V32.5H48.9696C50.8596 32.5 52.5846 32.95 54.1446 33.85C55.7046 34.72 56.9346 35.92 57.8346 37.45C58.7646 38.95 59.2296 40.645 59.2296 42.535C59.2296 44.335 58.7646 46 57.8346 47.53C56.9346 49.03 55.7046 50.23 54.1446 51.13C52.6146 52 50.8896 52.435 48.9696 52.435H41.0046V64H35.2896ZM53.5596 64L45.5496 49.78L51.5796 48.655L60.4896 64.045L53.5596 64ZM41.0046 47.35H49.0146C49.8846 47.35 50.6346 47.155 51.2646 46.765C51.9246 46.345 52.4346 45.775 52.7946 45.055C53.1546 44.335 53.3346 43.54 53.3346 42.67C53.3346 41.68 53.1096 40.825 52.6596 40.105C52.2096 39.385 51.5796 38.815 50.7696 38.395C49.9596 37.975 49.0296 37.765 47.9796 37.765H41.0046V47.35ZM66.3065 64V40.285H71.8415V64H66.3065ZM69.0065 35.245C67.8965 35.245 67.0265 34.975 66.3965 34.435C65.7965 33.865 65.4965 33.07 65.4965 32.05C65.4965 31.09 65.8115 30.31 66.4415 29.71C67.0715 29.11 67.9265 28.81 69.0065 28.81C70.1465 28.81 71.0165 29.095 71.6165 29.665C72.2465 30.205 72.5615 31 72.5615 32.05C72.5615 32.98 72.2465 33.745 71.6165 34.345C70.9865 34.945 70.1165 35.245 69.0065 35.245ZM78.9051 64V30.7H84.4851V64H78.9051ZM101.665 64.45C99.1746 64.45 96.9696 63.925 95.0496 62.875C93.1596 61.825 91.6746 60.4 90.5946 58.6C89.5446 56.77 89.0196 54.685 89.0196 52.345C89.0196 50.485 89.3196 48.79 89.9196 47.26C90.5196 45.73 91.3446 44.41 92.3946 43.3C93.4746 42.16 94.7496 41.29 96.2196 40.69C97.7196 40.06 99.3546 39.745 101.125 39.745C102.685 39.745 104.14 40.045 105.49 40.645C106.84 41.245 108.01 42.07 109 43.12C109.99 44.14 110.74 45.37 111.25 46.81C111.79 48.22 112.045 49.765 112.015 51.445L111.97 53.38H92.7546L91.7196 49.6H107.335L106.615 50.365V49.375C106.525 48.445 106.225 47.635 105.715 46.945C105.205 46.225 104.545 45.67 103.735 45.28C102.955 44.86 102.085 44.65 101.125 44.65C99.6546 44.65 98.4096 44.935 97.3896 45.505C96.3996 46.075 95.6496 46.9 95.1396 47.98C94.6296 49.03 94.3746 50.35 94.3746 51.94C94.3746 53.47 94.6896 54.805 95.3196 55.945C95.9796 57.085 96.8946 57.97 98.0646 58.6C99.2646 59.2 100.66 59.5 102.25 59.5C103.36 59.5 104.38 59.32 105.31 58.96C106.24 58.6 107.245 57.955 108.325 57.025L111.07 60.85C110.26 61.6 109.33 62.245 108.28 62.785C107.26 63.295 106.18 63.7 105.04 64C103.9 64.3 102.775 64.45 101.665 64.45ZM120.077 74.35L125.117 62.695L125.162 66.385L113.462 40.285H119.852L126.377 55.765C126.587 56.155 126.797 56.68 127.007 57.34C127.217 57.97 127.397 58.6 127.547 59.23L126.422 59.59C126.632 59.02 126.857 58.42 127.097 57.79C127.337 57.13 127.562 56.455 127.772 55.765L133.352 40.285H139.787L129.887 64L125.837 74.35H120.077ZM21.9031 120L12.0931 88.5H18.2131L23.7931 107.085C23.9731 107.655 24.1381 108.285 24.2881 108.975C24.4381 109.665 24.5731 110.355 24.6931 111.045C24.8131 111.705 24.9181 112.32 25.0081 112.89C25.0981 113.46 25.1881 113.94 25.2781 114.33L24.0631 114.285C24.4231 112.875 24.7081 111.735 24.9181 110.865C25.1281 109.995 25.3081 109.275 25.4581 108.705C25.6381 108.105 25.8181 107.55 25.9981 107.04L31.3081 93.45H36.3031L41.4781 107.04C41.7781 107.88 42.0481 108.69 42.2881 109.47C42.5281 110.22 42.7231 110.97 42.8731 111.72C43.0531 112.44 43.2181 113.19 43.3681 113.97L42.2881 114.195C42.4081 113.475 42.4981 112.89 42.5581 112.44C42.6181 111.99 42.6781 111.585 42.7381 111.225C42.7981 110.865 42.8581 110.52 42.9181 110.19C42.9781 109.83 43.0681 109.41 43.1881 108.93C43.3381 108.42 43.5181 107.775 43.7281 106.995L49.2631 88.5H55.3381L45.4831 120H41.2531L33.2431 100.83L33.7831 101.01L26.1781 120H21.9031ZM69.0508 120.45C66.6808 120.45 64.5658 119.925 62.7058 118.875C60.8458 117.795 59.3758 116.325 58.2958 114.465C57.2158 112.605 56.6758 110.49 56.6758 108.12C56.6758 105.75 57.2158 103.635 58.2958 101.775C59.3758 99.915 60.8458 98.46 62.7058 97.41C64.5658 96.33 66.6808 95.79 69.0508 95.79C71.3908 95.79 73.4908 96.33 75.3508 97.41C77.2108 98.46 78.6658 99.915 79.7158 101.775C80.7958 103.635 81.3358 105.75 81.3358 108.12C81.3358 110.49 80.7958 112.605 79.7158 114.465C78.6658 116.325 77.2108 117.795 75.3508 118.875C73.4908 119.925 71.3908 120.45 69.0508 120.45ZM69.0508 115.545C70.3408 115.545 71.4808 115.215 72.4708 114.555C73.4908 113.895 74.2858 113.01 74.8558 111.9C75.4558 110.79 75.7408 109.53 75.7108 108.12C75.7408 106.68 75.4558 105.405 74.8558 104.295C74.2858 103.185 73.4908 102.315 72.4708 101.685C71.4808 101.025 70.3408 100.695 69.0508 100.695C67.7608 100.695 66.5908 101.025 65.5408 101.685C64.5208 102.315 63.7258 103.2 63.1558 104.34C62.5858 105.45 62.3008 106.71 62.3008 108.12C62.3008 109.53 62.5858 110.79 63.1558 111.9C63.7258 113.01 64.5208 113.895 65.5408 114.555C66.5908 115.215 67.7608 115.545 69.0508 115.545ZM86.2869 120V96.285H91.6869L91.7769 101.145L90.7419 101.685C91.0419 100.605 91.6269 99.63 92.4969 98.76C93.3669 97.86 94.4019 97.14 95.6019 96.6C96.8019 96.06 98.0319 95.79 99.2919 95.79C101.092 95.79 102.592 96.15 103.792 96.87C105.022 97.59 105.937 98.67 106.537 100.11C107.167 101.55 107.482 103.35 107.482 105.51V120H101.947V105.915C101.947 104.715 101.782 103.725 101.452 102.945C101.122 102.135 100.612 101.55 99.9219 101.19C99.2319 100.8 98.3919 100.62 97.4019 100.65C96.5919 100.65 95.8419 100.785 95.1519 101.055C94.4919 101.295 93.9069 101.655 93.3969 102.135C92.9169 102.585 92.5269 103.11 92.2269 103.71C91.9569 104.31 91.8219 104.97 91.8219 105.69V120H89.0769C88.5369 120 88.0269 120 87.5469 120C87.0969 120 86.6769 120 86.2869 120ZM124.374 130.35C122.604 130.35 120.834 130.08 119.064 129.54C117.324 129 115.914 128.295 114.834 127.425L116.814 123.33C117.444 123.78 118.149 124.17 118.929 124.5C119.709 124.83 120.534 125.085 121.404 125.265C122.304 125.445 123.189 125.535 124.059 125.535C125.649 125.535 126.969 125.28 128.019 124.77C129.099 124.29 129.909 123.54 130.449 122.52C130.989 121.53 131.259 120.285 131.259 118.785V114.42L132.069 114.735C131.889 115.665 131.394 116.55 130.584 117.39C129.774 118.23 128.754 118.92 127.524 119.46C126.294 119.97 125.034 120.225 123.744 120.225C121.494 120.225 119.499 119.7 117.759 118.65C116.049 117.6 114.684 116.175 113.664 114.375C112.674 112.545 112.179 110.445 112.179 108.075C112.179 105.705 112.674 103.605 113.664 101.775C114.654 99.915 116.004 98.46 117.714 97.41C119.454 96.33 121.404 95.79 123.564 95.79C124.464 95.79 125.334 95.895 126.174 96.105C127.014 96.315 127.779 96.615 128.469 97.005C129.189 97.395 129.834 97.83 130.404 98.31C130.974 98.79 131.439 99.3 131.799 99.84C132.159 100.38 132.384 100.905 132.474 101.415L131.304 101.775L131.394 96.285H136.839V118.38C136.839 120.3 136.554 121.995 135.984 123.465C135.414 124.935 134.589 126.18 133.509 127.2C132.429 128.25 131.124 129.03 129.594 129.54C128.064 130.08 126.324 130.35 124.374 130.35ZM124.599 115.5C125.949 115.5 127.134 115.185 128.154 114.555C129.204 113.925 130.014 113.055 130.584 111.945C131.154 110.835 131.439 109.56 131.439 108.12C131.439 106.65 131.139 105.36 130.539 104.25C129.969 103.11 129.174 102.225 128.154 101.595C127.134 100.965 125.949 100.65 124.599 100.65C123.249 100.65 122.064 100.98 121.044 101.64C120.024 102.27 119.214 103.155 118.614 104.295C118.044 105.405 117.759 106.68 117.759 108.12C117.759 109.53 118.044 110.805 118.614 111.945C119.214 113.055 120.024 113.925 121.044 114.555C122.064 115.185 123.249 115.5 124.599 115.5Z" fill="white"/>
</g>
<defs>
<clipPath id="clip0_1_5">
<rect width="150" height="150" fill="white"/>
</clipPath>
</defs>
</svg>
